# xmcd
# Copyright (C) 1995-1998 Ti Kan
#
# Track frame offsets:
#       150
#       15103
#       30655
#
# Disc length: 590 seconds
#
# Revision: 0
# Processed by: cddbd v1.5.2PL0 Copyright (c) Steve Scherf et al.
# Submitted via: CD-Transfer v1.0
#
DISCID=11024c03
DTITLE=Die Frechen Engel - 
DYEAR=08
DGENRE=
TTITLE0=Schwarze Rose (08)
TTITLE1=1000 Und Eine Nacht (08)
TTITLE2=Ich Hab Es Getan (08)
EXTD=
EXTT0=
EXTT1=
EXTT2=
PLAYORDER=
